# xmcd
# 
# Track frame offsets:
#     150
#     33768
#     46970
#     67871
#     85874
#     105531
#     123435
#     149570
#     176925
#     191019
#     207863
# 
# Disc length: 3044
# 
# Revision: 4
# Processed by: cddbd v1.5.2PL0 Copyright (c) Steve Scherf et al.
# Submitted via: fre:ac v1.0.17
# 
DISCID=980be20b
DTITLE=Blues Allstars - The Bluest Blues [CD 2)
DYEAR=1997
DGENRE=Blues
TTITLE0=The Bluest Blues
TTITLE1=Man of the World
TTITLE2=Albatros
TTITLE3=Wake up Moma
TTITLE4=If you live
TTITLE5=Watcha Gonna Do
TTITLE6=Luisiana Blues
TTITLE7=Play on little Girl
TTITLE8=Stop Messin' Round
TTITLE9=The Same Way
TTITLE10=If you be my Baby
EXTD=
EXTT0=
EXTT1=
EXTT2=
EXTT3=
EXTT4=
EXTT5=
EXTT6=
EXTT7=
EXTT8=
EXTT9=
EXTT10=
PLAYORDER=
